<svg width="250" height="250" viewBox="0 0 250 250" fill="none" xmlns="http://www.w3.org/2000/svg">
<path d="M67.4 157V122H167.2C171.2 122 174.533 121.4 177.2 120.2C180 118.867 181.4 116.133 181.4 112C181.4 107.733 180 105 177.2 103.8C174.533 102.6 171.2 102 167.2 102H70.6V190H20.6V62H159.4C169.4 62 178.733 62.7333 187.4 64.2C196.2 65.5333 203.867 68 210.4 71.6C216.933 75.2 222.067 80.2667 225.8 86.8C229.533 93.3333 231.4 101.733 231.4 112C231.4 122.267 229.533 130.4 225.8 136.4C222.067 142.4 216.933 146.867 210.4 149.8C203.867 152.733 196.2 154.667 187.4 155.6C178.733 156.533 169.4 157 159.4 157H67.4Z" fill="#8B5FFF"/>
</svg>
